<svg xmlns="http://www.w3.org/2000/svg" xmlns:xlink="http://www.w3.org/1999/xlink" width="1140" height="798.14"><rect width="1140" height="798.14" rx="5" ry="5" class="a"/><svg y="0%" x="0%"><circle cx="20" cy="20" r="6" fill="#ff5f58"/><circle cx="40" cy="20" r="6" fill="#ffbd2e"/><circle cx="60" cy="20" r="6" fill="#18c132"/></svg><svg height="738.14" viewBox="0 0 110 73.814" width="1100" x="15" xmlns="http://www.w3.org/2000/svg" xmlns:xlink="http://www.w3.org/1999/xlink" y="50"><style>@keyframes r{0%{transform:translateX(0)}1.52%{transform:translateX(-110px)}3.03%{transform:translateX(-220px)}5.05%{transform:translateX(-330px)}6.57%{transform:translateX(-440px)}9.6%{transform:translateX(-550px)}11.11%{transform:translateX(-660px)}14.65%{transform:translateX(-770px)}15.66%{transform:translateX(-880px)}19.19%{transform:translateX(-990px)}20.2%{transform:translateX(-1100px)}21.21%{transform:translateX(-1210px)}22.22%{transform:translateX(-1320px)}24.75%{transform:translateX(-1430px)}25.76%{transform:translateX(-1540px)}29.29%{transform:translateX(-1650px)}29.8%{transform:translateX(-1760px)}30.81%{transform:translateX(-1870px)}31.82%{transform:translateX(-1980px)}32.83%{transform:translateX(-2090px)}33.84%{transform:translateX(-2200px)}34.85%{transform:translateX(-2310px)}35.86%{transform:translateX(-2420px)}36.87%{transform:translateX(-2530px)}39.39%{transform:translateX(-2640px)}40.4%{transform:translateX(-2750px)}43.43%{transform:translateX(-2860px)}44.44%{transform:translateX(-2970px)}45.45%{transform:translateX(-3080px)}46.46%{transform:translateX(-3190px)}47.22%{transform:translateX(-3300px)}47.98%{transform:translateX(-3410px)}48.74%{transform:translateX(-3520px)}50.51%{transform:translateX(-3630px)}52.02%{transform:translateX(-3740px)}55.05%{transform:translateX(-3850px)}56.57%{transform:translateX(-3960px)}58.08%{transform:translateX(-4070px)}59.6%{transform:translateX(-4180px)}61.11%{transform:translateX(-4290px)}63.64%{transform:translateX(-4400px)}65.15%{transform:translateX(-4510px)}67.17%{transform:translateX(-4620px)}68.69%{transform:translateX(-4730px)}70.71%{transform:translateX(-4840px)}72.22%{transform:translateX(-4950px)}75.25%{transform:translateX(-5060px)}77.78%{transform:translateX(-5170px)}79.29%{transform:translateX(-5280px)}80.3%{transform:translateX(-5390px)}81.31%{transform:translateX(-5500px)}82.32%{transform:translateX(-5610px)}83.33%{transform:translateX(-5720px)}87.37%{transform:translateX(-5830px)}88.89%{transform:translateX(-5940px)}to{transform:translateX(-6050px)}}.a{fill:#282d35}.f{fill:#a8cc8c;font-weight:700;white-space:pre}.g{fill:#b9c0cb}.g,.h,.i{white-space:pre}.h{fill:#66c2cd;font-weight:700}.i{fill:#a8cc8c}.j{fill:#e88388;font-weight:700}.j,.l,.m,.o{white-space:pre}.l{fill:#dbab79;font-weight:700}.m,.o{fill:#d290e4}.o{fill:#b9c0cb;font-weight:700}</style><g font-family="Monaco,Consolas,Menlo,'Bitstream Vera Sans Mono','Powerline Symbols',monospace" font-size="1.67"><defs><symbol id="1"><text y="1.67" class="f">&gt;</text></symbol><symbol id="2"><text y="1.67" class="f">&gt;</text><text x="2.004" y="1.67" class="g">python</text><text x="9.018" y="1.67" class="g">-m</text><text x="12.024" y="1.67" class="g">threat_research_mcp</text></symbol><symbol id="3"><text y="1.67" class="g">#</text><text x="2.004" y="1.67" class="g">Sapphire</text><text x="11.022" y="1.67" class="g">Sleet</text><text x="17.034" y="1.67" class="g">macOS</text><text x="23.046" y="1.67" class="g">report</text><text x="30.06" y="1.67" class="g">--</text><text x="33.066" y="1.67" class="g">Claude</text><text x="40.08" y="1.67" class="g">orchestrating...</text></symbol><symbol id="4"><text y="1.67" class="h">[+]</text><text x="4.008" y="1.67" class="h">run_pipeline_tool</text><text x="23.046" y="1.67" class="g">text=&lt;report&gt;</text><text x="38.076" y="1.67" class="g">log_sources=edr_macos,proxy_logs</text></symbol><symbol id="5"><text y="1.67" class="i">[+]</text><text x="4.008" y="1.67" class="g">IOCs</text><text x="9.018" y="1.67" class="g">extracteds...</text></symbol><symbol id="6"><text x="4.008" y="1.67" class="g">IPs:</text><text x="13.026" y="1.67" class="j">185.220.101.47</text><text x="29.058" y="1.67" class="j">195.133.88.12</text></symbol><symbol id="7"><text x="4.008" y="1.67" class="g">Domains:</text><text x="13.026" y="1.67" class="j">zoomus-sdk[.]com</text><text x="31.062" y="1.67" class="j">cdn.apple-cdn[.]org</text></symbol><symbol id="8"><text x="4.008" y="1.67" class="g">Hash:</text><text x="13.026" y="1.67" style="white-space:pre" fill="#dbab79">a3f8c2d19e1b4f72...abcdef</text><text x="40.08" y="1.67" class="g">(SHA-256)</text></symbol><symbol id="9"><text y="1.67" class="i">[+]</text><text x="4.008" y="1.67" class="g">7</text><text x="6.012" y="1.67" class="g">techniques</text><text x="17.034" y="1.67" class="g">mappedniques...</text></symbol><symbol id="10"><text x="4.008" y="1.67" class="l">T1059.002</text><text x="15.03" y="1.67" class="g">AppleScript/osascript</text><text x="46.092" y="1.67" class="m">execution</text></symbol><symbol id="11"><text x="4.008" y="1.67" class="l">T1543.001</text><text x="15.03" y="1.67" class="g">Launch</text><text x="22.044" y="1.67" class="g">Agent</text><text x="28.056" y="1.67" class="g">persistence</text><text x="46.092" y="1.67" class="m">persistence</text></symbol><symbol id="12"><text x="4.008" y="1.67" class="l">T1548.006</text><text x="15.03" y="1.67" class="g">TCC</text><text x="19.038" y="1.67" class="g">database</text><text x="28.056" y="1.67" class="g">manipulation</text><text x="46.092" y="1.67" class="m">priv-esc</text></symbol><symbol id="13"><text x="4.008" y="1.67" class="l">T1555.003</text><text x="15.03" y="1.67" class="g">Keychain</text><text x="24.048" y="1.67" class="g">credential</text><text x="35.07" y="1.67" class="g">access</text><text x="46.092" y="1.67" class="m">cred-access</text></symbol><symbol id="14"><text x="4.008" y="1.67" class="l">T1539</text><text x="14.028" y="1.67" class="g">Session</text><text x="22.044" y="1.67" class="g">cookie</text><text x="29.058" y="1.67" class="g">theft</text><text x="45.09" y="1.67" class="m">cred-access</text></symbol><symbol id="15"><text x="4.008" y="1.67" class="l">T1567.002</text><text x="15.03" y="1.67" class="g">Telegram</text><text x="24.048" y="1.67" class="g">Bot</text><text x="28.056" y="1.67" class="g">API</text><text x="32.064" y="1.67" class="g">exfiltration</text><text x="46.092" y="1.67" class="m">exfiltration</text></symbol><symbol id="16"><text x="4.008" y="1.67" class="l">T1204.002</text><text x="15.03" y="1.67" class="g">User</text><text x="20.04" y="1.67" class="g">execution:</text><text x="31.062" y="1.67" class="g">malicious</text><text x="41.082" y="1.67" class="g">file</text><text x="46.092" y="1.67" class="m">execution</text></symbol><symbol id="17"><text y="1.67" class="i">[+]</text><text x="4.008" y="1.67" class="g">Hunt</text><text x="9.018" y="1.67" class="g">hypotheses</text><text x="20.04" y="1.67" class="g">readyheses</text><text x="31.062" y="1.67" class="g">(edr_macos)...</text></symbol><symbol id="18"><text x="4.008" y="1.67" class="g">Hypothesis</text><text x="15.03" y="1.67" class="g">-&gt;</text><text x="18.036" y="1.67" class="g">T1059.002</text></symbol><symbol id="19"><text x="4.008" y="1.67" style="white-space:pre" fill="#66c2cd">KQL:</text><text x="9.018" y="1.67" class="g">DeviceProcessEvents</text></symbol><symbol id="20"><text x="9.018" y="1.67" class="g">|</text><text x="11.022" y="1.67" class="g">where</text><text x="17.034" y="1.67" class="g">OSPlatform</text><text x="28.056" y="1.67" class="g">==</text><text x="31.062" y="1.67" class="g">&quot;macOS&quot;</text></symbol><symbol id="21"><text x="9.018" y="1.67" class="g">|</text><text x="11.022" y="1.67" class="g">where</text><text x="17.034" y="1.67" class="g">FileName</text><text x="26.052" y="1.67" class="g">==</text><text x="29.058" y="1.67" class="g">&quot;osascript&quot;</text></symbol><symbol id="22"><text x="9.018" y="1.67" class="g">|</text><text x="11.022" y="1.67" class="g">where</text><text x="17.034" y="1.67" class="g">InitiatingProcessFileName</text><text x="43.086" y="1.67" class="g">in~</text><text x="47.094" y="1.67" class="g">(&quot;Safari&quot;,&quot;Chrome&quot;,&quot;Zoom&quot;)</text></symbol><symbol id="23"><text y="1.67" class="h">[+]</text><text x="4.008" y="1.67" class="h">score_sigma</text><text x="17.034" y="1.67" class="g">(T1059.002</text><text x="28.056" y="1.67" class="g">rule)</text></symbol><symbol id="24"><text x="4.008" y="1.67" class="g">Specificity</text><text x="17.034" y="1.67" class="i">[####.]</text><text x="26.052" y="1.67" class="g">4/5</text></symbol><symbol id="25"><text x="4.008" y="1.67" class="g">Coverage</text><text x="17.034" y="1.67" class="i">[###..]</text><text x="26.052" y="1.67" class="g">3/5</text></symbol><symbol id="26"><text x="4.008" y="1.67" class="g">FP</text><text x="7.014" y="1.67" class="g">Risk</text><text x="17.034" y="1.67" class="i">[##...]</text><text x="26.052" y="1.67" class="g">2/5</text><text x="31.062" y="1.67" class="g">(low)</text></symbol><symbol id="27"><text x="4.008" y="1.67" class="g">Overall</text><text x="17.034" y="1.67" class="f">[####.]</text><text x="26.052" y="1.67" class="f">4/5</text><text x="31.062" y="1.67" class="f">production-ready</text></symbol><symbol id="28"><text y="1.67" class="h">[+]</text><text x="4.008" y="1.67" class="h">navigator_layer</text></symbol><symbol id="29"><text x="4.008" y="1.67" class="i">[+]</text><text x="8.016" y="1.67" class="g">ATT&amp;CK</text><text x="15.03" y="1.67" class="g">Navigator</text><text x="25.05" y="1.67" class="g">4.5</text><text x="29.058" y="1.67" class="g">layer</text><text x="35.07" y="1.67" class="g">ready</text></symbol><symbol id="30"><text x="4.008" y="1.67" class="g">Drag</text><text x="9.018" y="1.67" class="g">into</text><text x="14.028" y="1.67" class="g">https://mitre-attack.github.io/attack-navigator/</text></symbol><symbol id="31"><text y="1.67" class="h">[+]</text><text x="4.008" y="1.67" class="h">misp_push_sigma</text><text x="21.042" y="1.67" class="g">event_id=1234</text><text x="36.072" y="1.67" class="g">technique=T1059.002</text></symbol><symbol id="32"><text x="4.008" y="1.67" class="i">[+]</text><text x="8.016" y="1.67" class="g">Sigma</text><text x="14.028" y="1.67" class="g">rule</text><text x="19.038" y="1.67" class="g">-&gt;</text><text x="22.044" y="1.67" class="g">MISP</text><text x="27.054" y="1.67" class="g">event</text><text x="33.066" y="1.67" class="g">1234,</text><text x="39.078" y="1.67" class="g">attribute</text><text x="49.098" y="1.67" class="g">5678</text></symbol><symbol id="33"><text y="1.67" class="f">-------------------------------------------------</text></symbol><symbol id="34"><text x="2.004" y="1.67" class="o">Pipeline</text><text x="11.022" y="1.67" class="o">complete</text></symbol><symbol id="35"><text x="2.004" y="1.67" class="g">7</text><text x="4.008" y="1.67" class="g">techniques</text><text x="16.032" y="1.67" class="g">|</text><text x="19.038" y="1.67" class="g">7</text><text x="21.042" y="1.67" class="g">hunt</text><text x="26.052" y="1.67" class="g">hypotheses</text><text x="38.076" y="1.67" class="g">|</text><text x="41.082" y="1.67" class="g">7</text><text x="43.086" y="1.67" class="g">Sigma</text><text x="49.098" y="1.67" class="g">rules</text></symbol><symbol id="36"><text x="2.004" y="1.67" class="g">Navigator</text><text x="12.024" y="1.67" class="g">layer</text><text x="18.036" y="1.67" class="g">ready</text><text x="25.05" y="1.67" class="g">|</text><text x="28.056" y="1.67" class="g">Score</text><text x="34.068" y="1.67" class="g">4/5</text><text x="39.078" y="1.67" class="g">|</text><text x="42.084" y="1.67" class="g">Rule</text><text x="47.094" y="1.67" class="g">pushed</text><text x="54.108" y="1.67" class="g">to</text><text x="57.114" y="1.67" class="g">MISP</text></symbol><symbol id="a"><path fill="transparent" d="M0 0h110v35H0z"/></symbol><symbol id="b"><path fill="#6f7683" d="M0 0h1.102v2.171H0z"/></symbol></defs><path class="a" d="M0 0h110v73.814H0z"/><g style="animation-duration:19.8s;animation-iteration-count:infinite;animation-name:r;animation-timing-function:steps(1,end)"><svg width="6160"><svg><use xlink:href="#a"/><use xlink:href="#b" x="-.004"/></svg><svg x="110"><use xlink:href="#a"/><use xlink:href="#b" x="1.996"/><use xlink:href="#1"/></svg><svg x="220"><use xlink:href="#a"/><use xlink:href="#b" x="30.996"/><use xlink:href="#2"/></svg><svg x="330"><use xlink:href="#a"/><use xlink:href="#b" x="-.004" y="2.146"/><use xlink:href="#2"/></svg><svg x="440"><use xlink:href="#a"/><use xlink:href="#b" x="-.004" y="4.317"/><use xlink:href="#2"/><use xlink:href="#3" y="2.171"/></svg><svg x="550"><use xlink:href="#a"/><use xlink:href="#b" x="-.004" y="6.488"/><use xlink:href="#2"/><use xlink:href="#3" y="2.171"/></svg><svg x="660"><use xlink:href="#a"/><use xlink:href="#b" x="-.004" y="8.659"/><use xlink:href="#2"/><use xlink:href="#3" y="2.171"/><use xlink:href="#4" y="6.513"/></svg><svg x="770"><use xlink:href="#a"/><use xlink:href="#b" x="-.004" y="10.83"/><use xlink:href="#2"/><use xlink:href="#3" y="2.171"/><use xlink:href="#4" y="6.513"/></svg><svg x="880"><use xlink:href="#a"/><use xlink:href="#b" x="-.004" y="10.83"/><use xlink:href="#2"/><use xlink:href="#3" y="2.171"/><use xlink:href="#4" y="6.513"/><text x="4.008" y="12.525" class="g">Extracting</text><text x="15.03" y="12.525" class="g">IOCs...</text></svg><svg x="990"><use xlink:href="#a"/><use xlink:href="#b" x="-.004" y="13.001"/><use xlink:href="#2"/><use xlink:href="#3" y="2.171"/><use xlink:href="#4" y="6.513"/><use xlink:href="#5" y="10.855"/></svg><svg x="1100"><use xlink:href="#a"/><use xlink:href="#b" x="-.004" y="15.172"/><use xlink:href="#2"/><use xlink:href="#3" y="2.171"/><use xlink:href="#4" y="6.513"/><use xlink:href="#5" y="10.855"/><use xlink:href="#6" y="13.026"/></svg><svg x="1210"><use xlink:href="#a"/><use xlink:href="#b" x="-.004" y="17.343"/><use xlink:href="#2"/><use xlink:href="#3" y="2.171"/><use xlink:href="#4" y="6.513"/><use xlink:href="#5" y="10.855"/><use xlink:href="#6" y="13.026"/><use xlink:href="#7" y="15.197"/></svg><svg x="1320"><use xlink:href="#a"/><use xlink:href="#b" x="-.004" y="19.514"/><use xlink:href="#2"/><use xlink:href="#3" y="2.171"/><use xlink:href="#4" y="6.513"/><use xlink:href="#5" y="10.855"/><use xlink:href="#6" y="13.026"/><use xlink:href="#7" y="15.197"/><use xlink:href="#8" y="17.368"/></svg><svg x="1430"><use xlink:href="#a"/><use xlink:href="#b" x="-.004" y="21.685"/><use xlink:href="#2"/><use xlink:href="#3" y="2.171"/><use xlink:href="#4" y="6.513"/><use xlink:href="#5" y="10.855"/><use xlink:href="#6" y="13.026"/><use xlink:href="#7" y="15.197"/><use xlink:href="#8" y="17.368"/></svg><svg x="1540"><use xlink:href="#a"/><use xlink:href="#b" x="-.004" y="21.685"/><use xlink:href="#2"/><use xlink:href="#3" y="2.171"/><use xlink:href="#4" y="6.513"/><use xlink:href="#5" y="10.855"/><use xlink:href="#6" y="13.026"/><use xlink:href="#7" y="15.197"/><use xlink:href="#8" y="17.368"/><text x="4.008" y="23.38" class="g">Mapping</text><text x="12.024" y="23.38" class="g">ATT&amp;CK</text><text x="19.038" y="23.38" class="g">techniques...</text></svg><svg x="1650"><use xlink:href="#a"/><use xlink:href="#b" x="-.004" y="23.856"/><use xlink:href="#2"/><use xlink:href="#3" y="2.171"/><use xlink:href="#4" y="6.513"/><use xlink:href="#5" y="10.855"/><use xlink:href="#6" y="13.026"/><use xlink:href="#7" y="15.197"/><use xlink:href="#8" y="17.368"/><use xlink:href="#9" y="21.71"/></svg><svg x="1760"><use xlink:href="#a"/><use xlink:href="#b" x="-.004" y="26.027"/><use xlink:href="#2"/><use xlink:href="#3" y="2.171"/><use xlink:href="#4" y="6.513"/><use xlink:href="#5" y="10.855"/><use xlink:href="#6" y="13.026"/><use xlink:href="#7" y="15.197"/><use xlink:href="#8" y="17.368"/><use xlink:href="#9" y="21.71"/></svg><svg x="1870"><use xlink:href="#a"/><use xlink:href="#b" x="-.004" y="28.198"/><use xlink:href="#2"/><use xlink:href="#3" y="2.171"/><use xlink:href="#4" y="6.513"/><use xlink:href="#5" y="10.855"/><use xlink:href="#6" y="13.026"/><use xlink:href="#7" y="15.197"/><use xlink:href="#8" y="17.368"/><use xlink:href="#9" y="21.71"/><use xlink:href="#10" y="26.052"/></svg><svg x="1980"><use xlink:href="#a"/><use xlink:href="#b" x="-.004" y="30.369"/><use xlink:href="#2"/><use xlink:href="#3" y="2.171"/><use xlink:href="#4" y="6.513"/><use xlink:href="#5" y="10.855"/><use xlink:href="#6" y="13.026"/><use xlink:href="#7" y="15.197"/><use xlink:href="#8" y="17.368"/><use xlink:href="#9" y="21.71"/><use xlink:href="#10" y="26.052"/><use xlink:href="#11" y="28.223"/></svg><svg x="2090"><use xlink:href="#a"/><use xlink:href="#b" x="-.004" y="32.54"/><use xlink:href="#2"/><use xlink:href="#3" y="2.171"/><use xlink:href="#4" y="6.513"/><use xlink:href="#5" y="10.855"/><use xlink:href="#6" y="13.026"/><use xlink:href="#7" y="15.197"/><use xlink:href="#8" y="17.368"/><use xlink:href="#9" y="21.71"/><use xlink:href="#10" y="26.052"/><use xlink:href="#11" y="28.223"/><use xlink:href="#12" y="30.394"/></svg><svg x="2200"><use xlink:href="#a"/><use xlink:href="#b" x="-.004" y="34.711"/><use xlink:href="#2"/><use xlink:href="#3" y="2.171"/><use xlink:href="#4" y="6.513"/><use xlink:href="#5" y="10.855"/><use xlink:href="#6" y="13.026"/><use xlink:href="#7" y="15.197"/><use xlink:href="#8" y="17.368"/><use xlink:href="#9" y="21.71"/><use xlink:href="#10" y="26.052"/><use xlink:href="#11" y="28.223"/><use xlink:href="#12" y="30.394"/><use xlink:href="#13" y="32.565"/></svg><svg x="2310"><use xlink:href="#a"/><use xlink:href="#b" x="-.004" y="36.882"/><use xlink:href="#2"/><use xlink:href="#3" y="2.171"/><use xlink:href="#4" y="6.513"/><use xlink:href="#5" y="10.855"/><use xlink:href="#6" y="13.026"/><use xlink:href="#7" y="15.197"/><use xlink:href="#8" y="17.368"/><use xlink:href="#9" y="21.71"/><use xlink:href="#10" y="26.052"/><use xlink:href="#11" y="28.223"/><use xlink:href="#12" y="30.394"/><use xlink:href="#13" y="32.565"/><use xlink:href="#14" y="34.736"/></svg><svg x="2420"><use xlink:href="#a"/><use xlink:href="#b" x="-.004" y="39.053"/><use xlink:href="#2"/><use xlink:href="#3" y="2.171"/><use xlink:href="#4" y="6.513"/><use xlink:href="#5" y="10.855"/><use xlink:href="#6" y="13.026"/><use xlink:href="#7" y="15.197"/><use xlink:href="#8" y="17.368"/><use xlink:href="#9" y="21.71"/><use xlink:href="#10" y="26.052"/><use xlink:href="#11" y="28.223"/><use xlink:href="#12" y="30.394"/><use xlink:href="#13" y="32.565"/><use xlink:href="#14" y="34.736"/><use xlink:href="#15" y="36.907"/></svg><svg x="2530"><use xlink:href="#a"/><use xlink:href="#b" x="-.004" y="41.224"/><use xlink:href="#2"/><use xlink:href="#3" y="2.171"/><use xlink:href="#4" y="6.513"/><use xlink:href="#5" y="10.855"/><use xlink:href="#6" y="13.026"/><use xlink:href="#7" y="15.197"/><use xlink:href="#8" y="17.368"/><use xlink:href="#9" y="21.71"/><use xlink:href="#10" y="26.052"/><use xlink:href="#11" y="28.223"/><use xlink:href="#12" y="30.394"/><use xlink:href="#13" y="32.565"/><use xlink:href="#14" y="34.736"/><use xlink:href="#15" y="36.907"/><use xlink:href="#16" y="39.078"/></svg><svg x="2640"><use xlink:href="#a"/><use xlink:href="#b" x="-.004" y="43.395"/><use xlink:href="#2"/><use xlink:href="#3" y="2.171"/><use xlink:href="#4" y="6.513"/><use xlink:href="#5" y="10.855"/><use xlink:href="#6" y="13.026"/><use xlink:href="#7" y="15.197"/><use xlink:href="#8" y="17.368"/><use xlink:href="#9" y="21.71"/><use xlink:href="#10" y="26.052"/><use xlink:href="#11" y="28.223"/><use xlink:href="#12" y="30.394"/><use xlink:href="#13" y="32.565"/><use xlink:href="#14" y="34.736"/><use xlink:href="#15" y="36.907"/><use xlink:href="#16" y="39.078"/></svg><svg x="2750"><use xlink:href="#a"/><use xlink:href="#b" x="-.004" y="43.395"/><use xlink:href="#2"/><use xlink:href="#3" y="2.171"/><use xlink:href="#4" y="6.513"/><use xlink:href="#5" y="10.855"/><use xlink:href="#6" y="13.026"/><use xlink:href="#7" y="15.197"/><use xlink:href="#8" y="17.368"/><use xlink:href="#9" y="21.71"/><use xlink:href="#10" y="26.052"/><use xlink:href="#11" y="28.223"/><use xlink:href="#12" y="30.394"/><use xlink:href="#13" y="32.565"/><use xlink:href="#14" y="34.736"/><use xlink:href="#15" y="36.907"/><use xlink:href="#16" y="39.078"/><text x="4.008" y="45.09" class="g">Generating</text><text x="15.03" y="45.09" class="g">hunt</text><text x="20.04" y="45.09" class="g">hypotheses</text><text x="31.062" y="45.09" class="g">(edr_macos)...</text></svg><svg x="2860"><use xlink:href="#a"/><use xlink:href="#b" x="-.004" y="45.566"/><use xlink:href="#2"/><use xlink:href="#3" y="2.171"/><use xlink:href="#4" y="6.513"/><use xlink:href="#5" y="10.855"/><use xlink:href="#6" y="13.026"/><use xlink:href="#7" y="15.197"/><use xlink:href="#8" y="17.368"/><use xlink:href="#9" y="21.71"/><use xlink:href="#10" y="26.052"/><use xlink:href="#11" y="28.223"/><use xlink:href="#12" y="30.394"/><use xlink:href="#13" y="32.565"/><use xlink:href="#14" y="34.736"/><use xlink:href="#15" y="36.907"/><use xlink:href="#16" y="39.078"/><use xlink:href="#17" y="43.42"/></svg><svg x="2970"><use xlink:href="#a"/><use xlink:href="#b" x="-.004" y="47.737"/><use xlink:href="#2"/><use xlink:href="#3" y="2.171"/><use xlink:href="#4" y="6.513"/><use xlink:href="#5" y="10.855"/><use xlink:href="#6" y="13.026"/><use xlink:href="#7" y="15.197"/><use xlink:href="#8" y="17.368"/><use xlink:href="#9" y="21.71"/><use xlink:href="#10" y="26.052"/><use xlink:href="#11" y="28.223"/><use xlink:href="#12" y="30.394"/><use xlink:href="#13" y="32.565"/><use xlink:href="#14" y="34.736"/><use xlink:href="#15" y="36.907"/><use xlink:href="#16" y="39.078"/><use xlink:href="#17" y="43.42"/></svg><svg x="3080"><use xlink:href="#a"/><use xlink:href="#b" x="-.004" y="49.908"/><use xlink:href="#2"/><use xlink:href="#3" y="2.171"/><use xlink:href="#4" y="6.513"/><use xlink:href="#5" y="10.855"/><use xlink:href="#6" y="13.026"/><use xlink:href="#7" y="15.197"/><use xlink:href="#8" y="17.368"/><use xlink:href="#9" y="21.71"/><use xlink:href="#10" y="26.052"/><use xlink:href="#11" y="28.223"/><use xlink:href="#12" y="30.394"/><use xlink:href="#13" y="32.565"/><use xlink:href="#14" y="34.736"/><use xlink:href="#15" y="36.907"/><use xlink:href="#16" y="39.078"/><use xlink:href="#17" y="43.42"/><use xlink:href="#18" y="47.762"/></svg><svg x="3190"><use xlink:href="#a"/><use xlink:href="#b" x="-.004" y="52.079"/><use xlink:href="#2"/><use xlink:href="#3" y="2.171"/><use xlink:href="#4" y="6.513"/><use xlink:href="#5" y="10.855"/><use xlink:href="#6" y="13.026"/><use xlink:href="#7" y="15.197"/><use xlink:href="#8" y="17.368"/><use xlink:href="#9" y="21.71"/><use xlink:href="#10" y="26.052"/><use xlink:href="#11" y="28.223"/><use xlink:href="#12" y="30.394"/><use xlink:href="#13" y="32.565"/><use xlink:href="#14" y="34.736"/><use xlink:href="#15" y="36.907"/><use xlink:href="#16" y="39.078"/><use xlink:href="#17" y="43.42"/><use xlink:href="#18" y="47.762"/><use xlink:href="#19" y="49.933"/></svg><svg x="3300"><use xlink:href="#a"/><use xlink:href="#b" x="-.004" y="54.25"/><use xlink:href="#2"/><use xlink:href="#3" y="2.171"/><use xlink:href="#4" y="6.513"/><use xlink:href="#5" y="10.855"/><use xlink:href="#6" y="13.026"/><use xlink:href="#7" y="15.197"/><use xlink:href="#8" y="17.368"/><use xlink:href="#9" y="21.71"/><use xlink:href="#10" y="26.052"/><use xlink:href="#11" y="28.223"/><use xlink:href="#12" y="30.394"/><use xlink:href="#13" y="32.565"/><use xlink:href="#14" y="34.736"/><use xlink:href="#15" y="36.907"/><use xlink:href="#16" y="39.078"/><use xlink:href="#17" y="43.42"/><use xlink:href="#18" y="47.762"/><use xlink:href="#19" y="49.933"/><use xlink:href="#20" y="52.104"/></svg><svg x="3410"><use xlink:href="#a"/><use xlink:href="#b" x="-.004" y="56.421"/><use xlink:href="#2"/><use xlink:href="#3" y="2.171"/><use xlink:href="#4" y="6.513"/><use xlink:href="#5" y="10.855"/><use xlink:href="#6" y="13.026"/><use xlink:href="#7" y="15.197"/><use xlink:href="#8" y="17.368"/><use xlink:href="#9" y="21.71"/><use xlink:href="#10" y="26.052"/><use xlink:href="#11" y="28.223"/><use xlink:href="#12" y="30.394"/><use xlink:href="#13" y="32.565"/><use xlink:href="#14" y="34.736"/><use xlink:href="#15" y="36.907"/><use xlink:href="#16" y="39.078"/><use xlink:href="#17" y="43.42"/><use xlink:href="#18" y="47.762"/><use xlink:href="#19" y="49.933"/><use xlink:href="#20" y="52.104"/><use xlink:href="#21" y="54.275"/></svg><svg x="3520"><use xlink:href="#a"/><use xlink:href="#b" x="-.004" y="58.592"/><use xlink:href="#2"/><use xlink:href="#3" y="2.171"/><use xlink:href="#4" y="6.513"/><use xlink:href="#5" y="10.855"/><use xlink:href="#6" y="13.026"/><use xlink:href="#7" y="15.197"/><use xlink:href="#8" y="17.368"/><use xlink:href="#9" y="21.71"/><use xlink:href="#10" y="26.052"/><use xlink:href="#11" y="28.223"/><use xlink:href="#12" y="30.394"/><use xlink:href="#13" y="32.565"/><use xlink:href="#14" y="34.736"/><use xlink:href="#15" y="36.907"/><use xlink:href="#16" y="39.078"/><use xlink:href="#17" y="43.42"/><use xlink:href="#18" y="47.762"/><use xlink:href="#19" y="49.933"/><use xlink:href="#20" y="52.104"/><use xlink:href="#21" y="54.275"/><use xlink:href="#22" y="56.446"/></svg><svg x="3630"><use xlink:href="#a"/><use xlink:href="#b" x="-.004" y="60.763"/><use xlink:href="#2"/><use xlink:href="#3" y="2.171"/><use xlink:href="#4" y="6.513"/><use xlink:href="#5" y="10.855"/><use xlink:href="#6" y="13.026"/><use xlink:href="#7" y="15.197"/><use xlink:href="#8" y="17.368"/><use xlink:href="#9" y="21.71"/><use xlink:href="#10" y="26.052"/><use xlink:href="#11" y="28.223"/><use xlink:href="#12" y="30.394"/><use xlink:href="#13" y="32.565"/><use xlink:href="#14" y="34.736"/><use xlink:href="#15" y="36.907"/><use xlink:href="#16" y="39.078"/><use xlink:href="#17" y="43.42"/><use xlink:href="#18" y="47.762"/><use xlink:href="#19" y="49.933"/><use xlink:href="#20" y="52.104"/><use xlink:href="#21" y="54.275"/><use xlink:href="#22" y="56.446"/></svg><svg x="3740"><use xlink:href="#a"/><use xlink:href="#b" x="-.004" y="62.934"/><use xlink:href="#2"/><use xlink:href="#3" y="2.171"/><use xlink:href="#4" y="6.513"/><use xlink:href="#5" y="10.855"/><use xlink:href="#6" y="13.026"/><use xlink:href="#7" y="15.197"/><use xlink:href="#8" y="17.368"/><use xlink:href="#9" y="21.71"/><use xlink:href="#10" y="26.052"/><use xlink:href="#11" y="28.223"/><use xlink:href="#12" y="30.394"/><use xlink:href="#13" y="32.565"/><use xlink:href="#14" y="34.736"/><use xlink:href="#15" y="36.907"/><use xlink:href="#16" y="39.078"/><use xlink:href="#17" y="43.42"/><use xlink:href="#18" y="47.762"/><use xlink:href="#19" y="49.933"/><use xlink:href="#20" y="52.104"/><use xlink:href="#21" y="54.275"/><use xlink:href="#22" y="56.446"/><use xlink:href="#23" y="60.788"/></svg><svg x="3850"><use xlink:href="#a"/><use xlink:href="#b" x="-.004" y="65.105"/><use xlink:href="#2"/><use xlink:href="#3" y="2.171"/><use xlink:href="#4" y="6.513"/><use xlink:href="#5" y="10.855"/><use xlink:href="#6" y="13.026"/><use xlink:href="#7" y="15.197"/><use xlink:href="#8" y="17.368"/><use xlink:href="#9" y="21.71"/><use xlink:href="#10" y="26.052"/><use xlink:href="#11" y="28.223"/><use xlink:href="#12" y="30.394"/><use xlink:href="#13" y="32.565"/><use xlink:href="#14" y="34.736"/><use xlink:href="#15" y="36.907"/><use xlink:href="#16" y="39.078"/><use xlink:href="#17" y="43.42"/><use xlink:href="#18" y="47.762"/><use xlink:href="#19" y="49.933"/><use xlink:href="#20" y="52.104"/><use xlink:href="#21" y="54.275"/><use xlink:href="#22" y="56.446"/><use xlink:href="#23" y="60.788"/></svg><svg x="3960"><use xlink:href="#a"/><use xlink:href="#b" x="-.004" y="67.276"/><use xlink:href="#2"/><use xlink:href="#3" y="2.171"/><use xlink:href="#4" y="6.513"/><use xlink:href="#5" y="10.855"/><use xlink:href="#6" y="13.026"/><use xlink:href="#7" y="15.197"/><use xlink:href="#8" y="17.368"/><use xlink:href="#9" y="21.71"/><use xlink:href="#10" y="26.052"/><use xlink:href="#11" y="28.223"/><use xlink:href="#12" y="30.394"/><use xlink:href="#13" y="32.565"/><use xlink:href="#14" y="34.736"/><use xlink:href="#15" y="36.907"/><use xlink:href="#16" y="39.078"/><use xlink:href="#17" y="43.42"/><use xlink:href="#18" y="47.762"/><use xlink:href="#19" y="49.933"/><use xlink:href="#20" y="52.104"/><use xlink:href="#21" y="54.275"/><use xlink:href="#22" y="56.446"/><use xlink:href="#23" y="60.788"/><use xlink:href="#24" y="65.13"/></svg><svg x="4070"><use xlink:href="#a"/><use xlink:href="#b" x="-.004" y="69.447"/><use xlink:href="#2"/><use xlink:href="#3" y="2.171"/><use xlink:href="#4" y="6.513"/><use xlink:href="#5" y="10.855"/><use xlink:href="#6" y="13.026"/><use xlink:href="#7" y="15.197"/><use xlink:href="#8" y="17.368"/><use xlink:href="#9" y="21.71"/><use xlink:href="#10" y="26.052"/><use xlink:href="#11" y="28.223"/><use xlink:href="#12" y="30.394"/><use xlink:href="#13" y="32.565"/><use xlink:href="#14" y="34.736"/><use xlink:href="#15" y="36.907"/><use xlink:href="#16" y="39.078"/><use xlink:href="#17" y="43.42"/><use xlink:href="#18" y="47.762"/><use xlink:href="#19" y="49.933"/><use xlink:href="#20" y="52.104"/><use xlink:href="#21" y="54.275"/><use xlink:href="#22" y="56.446"/><use xlink:href="#23" y="60.788"/><use xlink:href="#24" y="65.13"/><use xlink:href="#25" y="67.301"/></svg><svg x="4180"><use xlink:href="#a"/><use xlink:href="#b" x="-.004" y="71.618"/><use xlink:href="#2"/><use xlink:href="#3" y="2.171"/><use xlink:href="#4" y="6.513"/><use xlink:href="#5" y="10.855"/><use xlink:href="#6" y="13.026"/><use xlink:href="#7" y="15.197"/><use xlink:href="#8" y="17.368"/><use xlink:href="#9" y="21.71"/><use xlink:href="#10" y="26.052"/><use xlink:href="#11" y="28.223"/><use xlink:href="#12" y="30.394"/><use xlink:href="#13" y="32.565"/><use xlink:href="#14" y="34.736"/><use xlink:href="#15" y="36.907"/><use xlink:href="#16" y="39.078"/><use xlink:href="#17" y="43.42"/><use xlink:href="#18" y="47.762"/><use xlink:href="#19" y="49.933"/><use xlink:href="#20" y="52.104"/><use xlink:href="#21" y="54.275"/><use xlink:href="#22" y="56.446"/><use xlink:href="#23" y="60.788"/><use xlink:href="#24" y="65.13"/><use xlink:href="#25" y="67.301"/><use xlink:href="#26" y="69.472"/></svg><svg x="4290"><use xlink:href="#a"/><use xlink:href="#b" x="-.004" y="73.789"/><use xlink:href="#2"/><use xlink:href="#3" y="2.171"/><use xlink:href="#4" y="6.513"/><use xlink:href="#5" y="10.855"/><use xlink:href="#6" y="13.026"/><use xlink:href="#7" y="15.197"/><use xlink:href="#8" y="17.368"/><use xlink:href="#9" y="21.71"/><use xlink:href="#10" y="26.052"/><use xlink:href="#11" y="28.223"/><use xlink:href="#12" y="30.394"/><use xlink:href="#13" y="32.565"/><use xlink:href="#14" y="34.736"/><use xlink:href="#15" y="36.907"/><use xlink:href="#16" y="39.078"/><use xlink:href="#17" y="43.42"/><use xlink:href="#18" y="47.762"/><use xlink:href="#19" y="49.933"/><use xlink:href="#20" y="52.104"/><use xlink:href="#21" y="54.275"/><use xlink:href="#22" y="56.446"/><use xlink:href="#23" y="60.788"/><use xlink:href="#24" y="65.13"/><use xlink:href="#25" y="67.301"/><use xlink:href="#26" y="69.472"/><use xlink:href="#27" y="71.643"/></svg><svg x="4400"><use xlink:href="#a"/><use xlink:href="#b" x="-.004" y="73.789"/><use xlink:href="#3"/><use xlink:href="#4" y="4.342"/><use xlink:href="#5" y="8.684"/><use xlink:href="#6" y="10.855"/><use xlink:href="#7" y="13.026"/><use xlink:href="#8" y="15.197"/><use xlink:href="#9" y="19.539"/><use xlink:href="#10" y="23.881"/><use xlink:href="#11" y="26.052"/><use xlink:href="#12" y="28.223"/><use xlink:href="#13" y="30.394"/><use xlink:href="#14" y="32.565"/><use xlink:href="#15" y="34.736"/><use xlink:href="#16" y="36.907"/><use xlink:href="#17" y="41.249"/><use xlink:href="#18" y="45.591"/><use xlink:href="#19" y="47.762"/><use xlink:href="#20" y="49.933"/><use xlink:href="#21" y="52.104"/><use xlink:href="#22" y="54.275"/><use xlink:href="#23" y="58.617"/><use xlink:href="#24" y="62.959"/><use xlink:href="#25" y="65.13"/><use xlink:href="#26" y="67.301"/><use xlink:href="#27" y="69.472"/></svg><svg x="4510"><use xlink:href="#a"/><use xlink:href="#b" x="-.004" y="73.789"/><use xlink:href="#4" y="2.171"/><use xlink:href="#5" y="6.513"/><use xlink:href="#6" y="8.684"/><use xlink:href="#7" y="10.855"/><use xlink:href="#8" y="13.026"/><use xlink:href="#9" y="17.368"/><use xlink:href="#10" y="21.71"/><use xlink:href="#11" y="23.881"/><use xlink:href="#12" y="26.052"/><use xlink:href="#13" y="28.223"/><use xlink:href="#14" y="30.394"/><use xlink:href="#15" y="32.565"/><use xlink:href="#16" y="34.736"/><use xlink:href="#17" y="39.078"/><use xlink:href="#18" y="43.42"/><use xlink:href="#19" y="45.591"/><use xlink:href="#20" y="47.762"/><use xlink:href="#21" y="49.933"/><use xlink:href="#22" y="52.104"/><use xlink:href="#23" y="56.446"/><use xlink:href="#24" y="60.788"/><use xlink:href="#25" y="62.959"/><use xlink:href="#26" y="65.13"/><use xlink:href="#27" y="67.301"/><use xlink:href="#28" y="71.643"/></svg><svg x="4620"><use xlink:href="#a"/><use xlink:href="#b" x="-.004" y="73.789"/><use xlink:href="#4"/><use xlink:href="#5" y="4.342"/><use xlink:href="#6" y="6.513"/><use xlink:href="#7" y="8.684"/><use xlink:href="#8" y="10.855"/><use xlink:href="#9" y="15.197"/><use xlink:href="#10" y="19.539"/><use xlink:href="#11" y="21.71"/><use xlink:href="#12" y="23.881"/><use xlink:href="#13" y="26.052"/><use xlink:href="#14" y="28.223"/><use xlink:href="#15" y="30.394"/><use xlink:href="#16" y="32.565"/><use xlink:href="#17" y="36.907"/><use xlink:href="#18" y="41.249"/><use xlink:href="#19" y="43.42"/><use xlink:href="#20" y="45.591"/><use xlink:href="#21" y="47.762"/><use xlink:href="#22" y="49.933"/><use xlink:href="#23" y="54.275"/><use xlink:href="#24" y="58.617"/><use xlink:href="#25" y="60.788"/><use xlink:href="#26" y="62.959"/><use xlink:href="#27" y="65.13"/><use xlink:href="#28" y="69.472"/><use xlink:href="#29" y="71.643"/></svg><svg x="4730"><use xlink:href="#a"/><use xlink:href="#b" x="-.004" y="73.789"/><use xlink:href="#5" y="2.171"/><use xlink:href="#6" y="4.342"/><use xlink:href="#7" y="6.513"/><use xlink:href="#8" y="8.684"/><use xlink:href="#9" y="13.026"/><use xlink:href="#10" y="17.368"/><use xlink:href="#11" y="19.539"/><use xlink:href="#12" y="21.71"/><use xlink:href="#13" y="23.881"/><use xlink:href="#14" y="26.052"/><use xlink:href="#15" y="28.223"/><use xlink:href="#16" y="30.394"/><use xlink:href="#17" y="34.736"/><use xlink:href="#18" y="39.078"/><use xlink:href="#19" y="41.249"/><use xlink:href="#20" y="43.42"/><use xlink:href="#21" y="45.591"/><use xlink:href="#22" y="47.762"/><use xlink:href="#23" y="52.104"/><use xlink:href="#24" y="56.446"/><use xlink:href="#25" y="58.617"/><use xlink:href="#26" y="60.788"/><use xlink:href="#27" y="62.959"/><use xlink:href="#28" y="67.301"/><use xlink:href="#29" y="69.472"/><use xlink:href="#30" y="71.643"/></svg><svg x="4840"><use xlink:href="#a"/><use xlink:href="#b" x="-.004" y="73.789"/><use xlink:href="#5"/><use xlink:href="#6" y="2.171"/><use xlink:href="#7" y="4.342"/><use xlink:href="#8" y="6.513"/><use xlink:href="#9" y="10.855"/><use xlink:href="#10" y="15.197"/><use xlink:href="#11" y="17.368"/><use xlink:href="#12" y="19.539"/><use xlink:href="#13" y="21.71"/><use xlink:href="#14" y="23.881"/><use xlink:href="#15" y="26.052"/><use xlink:href="#16" y="28.223"/><use xlink:href="#17" y="32.565"/><use xlink:href="#18" y="36.907"/><use xlink:href="#19" y="39.078"/><use xlink:href="#20" y="41.249"/><use xlink:href="#21" y="43.42"/><use xlink:href="#22" y="45.591"/><use xlink:href="#23" y="49.933"/><use xlink:href="#24" y="54.275"/><use xlink:href="#25" y="56.446"/><use xlink:href="#26" y="58.617"/><use xlink:href="#27" y="60.788"/><use xlink:href="#28" y="65.13"/><use xlink:href="#29" y="67.301"/><use xlink:href="#30" y="69.472"/></svg><svg x="4950"><use xlink:href="#a"/><use xlink:href="#b" x="-.004" y="73.789"/><use xlink:href="#6"/><use xlink:href="#7" y="2.171"/><use xlink:href="#8" y="4.342"/><use xlink:href="#9" y="8.684"/><use xlink:href="#10" y="13.026"/><use xlink:href="#11" y="15.197"/><use xlink:href="#12" y="17.368"/><use xlink:href="#13" y="19.539"/><use xlink:href="#14" y="21.71"/><use xlink:href="#15" y="23.881"/><use xlink:href="#16" y="26.052"/><use xlink:href="#17" y="30.394"/><use xlink:href="#18" y="34.736"/><use xlink:href="#19" y="36.907"/><use xlink:href="#20" y="39.078"/><use xlink:href="#21" y="41.249"/><use xlink:href="#22" y="43.42"/><use xlink:href="#23" y="47.762"/><use xlink:href="#24" y="52.104"/><use xlink:href="#25" y="54.275"/><use xlink:href="#26" y="56.446"/><use xlink:href="#27" y="58.617"/><use xlink:href="#28" y="62.959"/><use xlink:href="#29" y="65.13"/><use xlink:href="#30" y="67.301"/><use xlink:href="#31" y="71.643"/></svg><svg x="5060"><use xlink:href="#a"/><use xlink:href="#b" x="-.004" y="73.789"/><use xlink:href="#7"/><use xlink:href="#8" y="2.171"/><use xlink:href="#9" y="6.513"/><use xlink:href="#10" y="10.855"/><use xlink:href="#11" y="13.026"/><use xlink:href="#12" y="15.197"/><use xlink:href="#13" y="17.368"/><use xlink:href="#14" y="19.539"/><use xlink:href="#15" y="21.71"/><use xlink:href="#16" y="23.881"/><use xlink:href="#17" y="28.223"/><use xlink:href="#18" y="32.565"/><use xlink:href="#19" y="34.736"/><use xlink:href="#20" y="36.907"/><use xlink:href="#21" y="39.078"/><use xlink:href="#22" y="41.249"/><use xlink:href="#23" y="45.591"/><use xlink:href="#24" y="49.933"/><use xlink:href="#25" y="52.104"/><use xlink:href="#26" y="54.275"/><use xlink:href="#27" y="56.446"/><use xlink:href="#28" y="60.788"/><use xlink:href="#29" y="62.959"/><use xlink:href="#30" y="65.13"/><use xlink:href="#31" y="69.472"/><use xlink:href="#32" y="71.643"/></svg><svg x="5170"><use xlink:href="#a"/><use xlink:href="#b" x="-.004" y="73.789"/><use xlink:href="#8"/><use xlink:href="#9" y="4.342"/><use xlink:href="#10" y="8.684"/><use xlink:href="#11" y="10.855"/><use xlink:href="#12" y="13.026"/><use xlink:href="#13" y="15.197"/><use xlink:href="#14" y="17.368"/><use xlink:href="#15" y="19.539"/><use xlink:href="#16" y="21.71"/><use xlink:href="#17" y="26.052"/><use xlink:href="#18" y="30.394"/><use xlink:href="#19" y="32.565"/><use xlink:href="#20" y="34.736"/><use xlink:href="#21" y="36.907"/><use xlink:href="#22" y="39.078"/><use xlink:href="#23" y="43.42"/><use xlink:href="#24" y="47.762"/><use xlink:href="#25" y="49.933"/><use xlink:href="#26" y="52.104"/><use xlink:href="#27" y="54.275"/><use xlink:href="#28" y="58.617"/><use xlink:href="#29" y="60.788"/><use xlink:href="#30" y="62.959"/><use xlink:href="#31" y="67.301"/><use xlink:href="#32" y="69.472"/></svg><svg x="5280"><use xlink:href="#a"/><use xlink:href="#b" x="-.004" y="73.789"/><use xlink:href="#9" y="2.171"/><use xlink:href="#10" y="6.513"/><use xlink:href="#11" y="8.684"/><use xlink:href="#12" y="10.855"/><use xlink:href="#13" y="13.026"/><use xlink:href="#14" y="15.197"/><use xlink:href="#15" y="17.368"/><use xlink:href="#16" y="19.539"/><use xlink:href="#17" y="23.881"/><use xlink:href="#18" y="28.223"/><use xlink:href="#19" y="30.394"/><use xlink:href="#20" y="32.565"/><use xlink:href="#21" y="34.736"/><use xlink:href="#22" y="36.907"/><use xlink:href="#23" y="41.249"/><use xlink:href="#24" y="45.591"/><use xlink:href="#25" y="47.762"/><use xlink:href="#26" y="49.933"/><use xlink:href="#27" y="52.104"/><use xlink:href="#28" y="56.446"/><use xlink:href="#29" y="58.617"/><use xlink:href="#30" y="60.788"/><use xlink:href="#31" y="65.13"/><use xlink:href="#32" y="67.301"/><use xlink:href="#33" y="71.643"/></svg><svg x="5390"><use xlink:href="#a"/><use xlink:href="#b" x="-.004" y="73.789"/><use xlink:href="#9"/><use xlink:href="#10" y="4.342"/><use xlink:href="#11" y="6.513"/><use xlink:href="#12" y="8.684"/><use xlink:href="#13" y="10.855"/><use xlink:href="#14" y="13.026"/><use xlink:href="#15" y="15.197"/><use xlink:href="#16" y="17.368"/><use xlink:href="#17" y="21.71"/><use xlink:href="#18" y="26.052"/><use xlink:href="#19" y="28.223"/><use xlink:href="#20" y="30.394"/><use xlink:href="#21" y="32.565"/><use xlink:href="#22" y="34.736"/><use xlink:href="#23" y="39.078"/><use xlink:href="#24" y="43.42"/><use xlink:href="#25" y="45.591"/><use xlink:href="#26" y="47.762"/><use xlink:href="#27" y="49.933"/><use xlink:href="#28" y="54.275"/><use xlink:href="#29" y="56.446"/><use xlink:href="#30" y="58.617"/><use xlink:href="#31" y="62.959"/><use xlink:href="#32" y="65.13"/><use xlink:href="#33" y="69.472"/><use xlink:href="#34" y="71.643"/></svg><svg x="5500"><use xlink:href="#a"/><use xlink:href="#b" x="-.004" y="73.789"/><use xlink:href="#10" y="2.171"/><use xlink:href="#11" y="4.342"/><use xlink:href="#12" y="6.513"/><use xlink:href="#13" y="8.684"/><use xlink:href="#14" y="10.855"/><use xlink:href="#15" y="13.026"/><use xlink:href="#16" y="15.197"/><use xlink:href="#17" y="19.539"/><use xlink:href="#18" y="23.881"/><use xlink:href="#19" y="26.052"/><use xlink:href="#20" y="28.223"/><use xlink:href="#21" y="30.394"/><use xlink:href="#22" y="32.565"/><use xlink:href="#23" y="36.907"/><use xlink:href="#24" y="41.249"/><use xlink:href="#25" y="43.42"/><use xlink:href="#26" y="45.591"/><use xlink:href="#27" y="47.762"/><use xlink:href="#28" y="52.104"/><use xlink:href="#29" y="54.275"/><use xlink:href="#30" y="56.446"/><use xlink:href="#31" y="60.788"/><use xlink:href="#32" y="62.959"/><use xlink:href="#33" y="67.301"/><use xlink:href="#34" y="69.472"/><use xlink:href="#35" y="71.643"/></svg><svg x="5610"><use xlink:href="#a"/><use xlink:href="#b" x="-.004" y="73.789"/><use xlink:href="#10"/><use xlink:href="#11" y="2.171"/><use xlink:href="#12" y="4.342"/><use xlink:href="#13" y="6.513"/><use xlink:href="#14" y="8.684"/><use xlink:href="#15" y="10.855"/><use xlink:href="#16" y="13.026"/><use xlink:href="#17" y="17.368"/><use xlink:href="#18" y="21.71"/><use xlink:href="#19" y="23.881"/><use xlink:href="#20" y="26.052"/><use xlink:href="#21" y="28.223"/><use xlink:href="#22" y="30.394"/><use xlink:href="#23" y="34.736"/><use xlink:href="#24" y="39.078"/><use xlink:href="#25" y="41.249"/><use xlink:href="#26" y="43.42"/><use xlink:href="#27" y="45.591"/><use xlink:href="#28" y="49.933"/><use xlink:href="#29" y="52.104"/><use xlink:href="#30" y="54.275"/><use xlink:href="#31" y="58.617"/><use xlink:href="#32" y="60.788"/><use xlink:href="#33" y="65.13"/><use xlink:href="#34" y="67.301"/><use xlink:href="#35" y="69.472"/><use xlink:href="#36" y="71.643"/></svg><svg x="5720"><use xlink:href="#a"/><use xlink:href="#b" x="-.004" y="73.789"/><use xlink:href="#11"/><use xlink:href="#12" y="2.171"/><use xlink:href="#13" y="4.342"/><use xlink:href="#14" y="6.513"/><use xlink:href="#15" y="8.684"/><use xlink:href="#16" y="10.855"/><use xlink:href="#17" y="15.197"/><use xlink:href="#18" y="19.539"/><use xlink:href="#19" y="21.71"/><use xlink:href="#20" y="23.881"/><use xlink:href="#21" y="26.052"/><use xlink:href="#22" y="28.223"/><use xlink:href="#23" y="32.565"/><use xlink:href="#24" y="36.907"/><use xlink:href="#25" y="39.078"/><use xlink:href="#26" y="41.249"/><use xlink:href="#27" y="43.42"/><use xlink:href="#28" y="47.762"/><use xlink:href="#29" y="49.933"/><use xlink:href="#30" y="52.104"/><use xlink:href="#31" y="56.446"/><use xlink:href="#32" y="58.617"/><use xlink:href="#33" y="62.959"/><use xlink:href="#34" y="65.13"/><use xlink:href="#35" y="67.301"/><use xlink:href="#36" y="69.472"/><use xlink:href="#33" y="71.643"/></svg><svg x="5830"><use xlink:href="#a"/><use xlink:href="#b" x="-.004" y="73.789"/><use xlink:href="#12"/><use xlink:href="#13" y="2.171"/><use xlink:href="#14" y="4.342"/><use xlink:href="#15" y="6.513"/><use xlink:href="#16" y="8.684"/><use xlink:href="#17" y="13.026"/><use xlink:href="#18" y="17.368"/><use xlink:href="#19" y="19.539"/><use xlink:href="#20" y="21.71"/><use xlink:href="#21" y="23.881"/><use xlink:href="#22" y="26.052"/><use xlink:href="#23" y="30.394"/><use xlink:href="#24" y="34.736"/><use xlink:href="#25" y="36.907"/><use xlink:href="#26" y="39.078"/><use xlink:href="#27" y="41.249"/><use xlink:href="#28" y="45.591"/><use xlink:href="#29" y="47.762"/><use xlink:href="#30" y="49.933"/><use xlink:href="#31" y="54.275"/><use xlink:href="#32" y="56.446"/><use xlink:href="#33" y="60.788"/><use xlink:href="#34" y="62.959"/><use xlink:href="#35" y="65.13"/><use xlink:href="#36" y="67.301"/><use xlink:href="#33" y="69.472"/></svg><svg x="5940"><use xlink:href="#a"/><use xlink:href="#b" x="1.996" y="73.789"/><use xlink:href="#12"/><use xlink:href="#13" y="2.171"/><use xlink:href="#14" y="4.342"/><use xlink:href="#15" y="6.513"/><use xlink:href="#16" y="8.684"/><use xlink:href="#17" y="13.026"/><use xlink:href="#18" y="17.368"/><use xlink:href="#19" y="19.539"/><use xlink:href="#20" y="21.71"/><use xlink:href="#21" y="23.881"/><use xlink:href="#22" y="26.052"/><use xlink:href="#23" y="30.394"/><use xlink:href="#24" y="34.736"/><use xlink:href="#25" y="36.907"/><use xlink:href="#26" y="39.078"/><use xlink:href="#27" y="41.249"/><use xlink:href="#28" y="45.591"/><use xlink:href="#29" y="47.762"/><use xlink:href="#30" y="49.933"/><use xlink:href="#31" y="54.275"/><use xlink:href="#32" y="56.446"/><use xlink:href="#33" y="60.788"/><use xlink:href="#34" y="62.959"/><use xlink:href="#35" y="65.13"/><use xlink:href="#36" y="67.301"/><use xlink:href="#33" y="69.472"/><use xlink:href="#1" y="73.814"/></svg><svg x="6050"><use xlink:href="#a"/><use xlink:href="#b" x="1.996" y="73.789"/><use xlink:href="#12"/><use xlink:href="#13" y="2.171"/><use xlink:href="#14" y="4.342"/><use xlink:href="#15" y="6.513"/><use xlink:href="#16" y="8.684"/><use xlink:href="#17" y="13.026"/><use xlink:href="#18" y="17.368"/><use xlink:href="#19" y="19.539"/><use xlink:href="#20" y="21.71"/><use xlink:href="#21" y="23.881"/><use xlink:href="#22" y="26.052"/><use xlink:href="#23" y="30.394"/><use xlink:href="#24" y="34.736"/><use xlink:href="#25" y="36.907"/><use xlink:href="#26" y="39.078"/><use xlink:href="#27" y="41.249"/><use xlink:href="#28" y="45.591"/><use xlink:href="#29" y="47.762"/><use xlink:href="#30" y="49.933"/><use xlink:href="#31" y="54.275"/><use xlink:href="#32" y="56.446"/><use xlink:href="#33" y="60.788"/><use xlink:href="#34" y="62.959"/><use xlink:href="#35" y="65.13"/><use xlink:href="#36" y="67.301"/><use xlink:href="#33" y="69.472"/><use xlink:href="#1" y="73.814"/></svg></svg></g></g></svg></svg>